<?xml version="1.0" encoding="UTF-8"?> <svg xmlns="http://www.w3.org/2000/svg" width="49" height="48" viewBox="0 0 49 48" fill="none"><rect opacity="0.6" x="7.95837" y="8.625" width="33.75" height="30.75" rx="6.82667" fill="#C9EEE7"></rect><path fill-rule="evenodd" clip-rule="evenodd" d="M47.8026 10.116C48.0092 10.334 48.1018 10.6361 48.053 10.9324L46.3832 21.0639C46.2969 21.587 45.803 21.9412 45.2798 21.855C44.7567 21.7688 44.4025 21.2748 44.4887 20.7516L45.6427 13.7498L35.6645 24.436C35.2049 24.9282 34.4425 24.9801 33.9205 24.5548L30.0805 21.4262L21.7843 30.5341C21.3117 31.053 20.5094 31.0945 19.9857 30.6272L14.2739 25.5297L4.1906 36.5112C3.832 36.9017 3.22472 36.9276 2.83418 36.569C2.44365 36.2104 2.41775 35.6031 2.77634 35.2126L13.2864 23.7663C13.7597 23.2508 14.5594 23.211 15.0815 23.677L20.7915 28.7728L29.0689 19.6855C29.5265 19.1832 30.2969 19.1259 30.8237 19.5551L34.6694 22.6884L44.6372 12.0133L38.1034 12.7313C37.5764 12.7892 37.1022 12.4089 37.0443 11.8819C36.9864 11.3549 37.3666 10.8807 37.8937 10.8228L47.0009 9.82204C47.2994 9.78924 47.5961 9.89801 47.8026 10.116Z" fill="#2A3847"></path></svg> 